
<svg version="1.0" xmlns="http://www.w3.org/2000/svg"
width="205.0px" height="190.0px" 

 preserveAspectRatio="xMidYMid meet" >

<g transform="translate(-184.0,454.0) scale(0.08,-0.08)"
 stroke="none">

<!-- triangulo -->
<path fill="black"
     d="M3478 5588 c-25 -23 -199 -324 -584 -1008 -526 -935 -548 -977 -549
-1027 0 -60 23 -99 76 -125 32 -17 107 -18 1142 -18 1201 0 1144 -3 1197 55
21 22 25 36 24 83 0 56 -7 70 -335 652 -185 327 -422 750 -529 940 -106 190
-205 365 -220 390 -36 61 -81 90 -140 90 -39 0 -53 -6 -82 -32z m163 -226 c36
-64 175 -310 309 -547 625 -1104 700 -1238 700 -1251 0 -12 -159 -14 -1079
-14 -594 0 -1082 4 -1085 8 -3 5 68 139 158 298 405 721 843 1505 874 1562 18
34 39 62 45 62 7 0 42 -53 78 -118z"/>

<path style="fill: yellow; stroke: none; stroke-width:5; "
   d="M2467 3557 l1096 1934 l1098 -1936 Z" />

<!-- head -->
<path style="stroke: black; stroke-width:5;"
d="M3687 4670 c-14 -11 -31 -36 -37 -54 -21 -66 33 -136 106 -136 38 0
94 59 94 99 0 90 -96 144 -163 91z"/>

<!-- man -->
<path fill="black" d="M3208 4633 c-9 -10 -26 -62 -38 -115 -12 -54 -24 -98 -27 -98 -2 0
-15 7 -28 16 -23 15 -25 15 -32 -1 -4 -13 3 -25 25 -44 18 -14 32 -31 32 -37
0 -6 7 -17 15 -24 14 -12 13 -17 -12 -42 l-28 -29 -6 -187 c-4 -162 -9 -202
-34 -297 -32 -125 -30 -158 12 -173 36 -12 68 2 82 37 34 83 74 284 80 393 l6
117 75 -96 c41 -53 74 -101 72 -106 -2 -6 -29 -65 -62 -133 -71 -150 -73 -155
-61 -187 13 -34 53 -45 86 -23 31 21 185 323 185 364 0 16 -9 37 -20 47 -21
19 -27 39 -11 33 5 -1 75 -57 156 -122 l145 -119 -29 -18 c-16 -10 -32 -26
-35 -37 -4 -11 -18 -23 -32 -26 -14 -4 -33 -20 -42 -36 -11 -20 -28 -32 -50
-36 -34 -7 -82 -39 -82 -55 0 -5 157 -9 390 -9 331 0 390 2 390 14 0 18 -47
56 -69 56 -24 1 -71 46 -71 68 0 35 -38 72 -74 72 -25 0 -35 6 -44 25 -14 30
-68 65 -100 65 -27 0 -59 -15 -89 -42 -14 -13 -26 -17 -36 -11 -8 4 -83 64
-166 133 l-150 124 54 101 c102 191 108 203 101 228 -5 22 -65 116 -123 195
l-24 32 -158 0 c-138 0 -160 -2 -173 -17z m112 -168 c-53 -54 -73 -67 -65 -42
2 6 9 31 15 55 11 42 11 42 58 42 l46 0 -54 -55z m180 -180 c0 -3 -14 -30 -31
-60 l-31 -55 -40 33 -40 32 59 27 c57 26 83 33 83 23z"/>
</g>
</svg>

