<svg version="1.0" xmlns="http://www.w3.org/2000/svg"
 width="65.000000pt" height="101.000000pt" 
viewBox="0 0 65.000000 101.000000"
 preserveAspectRatio="xMidYMid meet"
style="fill:gray;">

<g transform="translate(0.000000,101.000000) scale(0.100000,-0.100000)"
  stroke="none">
<path fill="gray" d="M202 851 c-65 -22 -107 -61 -119 -109 -19 -77 18 -132 88 -132 52 0
67 8 85 42 19 37 12 74 -23 110 -25 26 -25 26 -5 37 52 28 116 -1 133 -58 17
-58 3 -122 -48 -219 -30 -58 -47 -102 -50 -139 l-6 -53 30 0 c26 0 30 5 41 44
9 34 24 54 64 88 115 96 147 132 159 178 41 162 -152 279 -349 211z"/>
<path d="M241 254 c-13 -9 -29 -32 -37 -50 -29 -68 30 -142 104 -131 112 18
110 179 -3 193 -28 4 -47 0 -64 -12z"/>
</g>
</svg>
